<svg width="80" height="80" viewBox="0 0 80 80" fill="none" xmlns="http://www.w3.org/2000/svg">
<g clip-path="url(#clip0_405_85542)">
<path d="M68 0H12C5.37258 0 0 5.37258 0 12V68C0 74.6274 5.37258 80 12 80H68C74.6274 80 80 74.6274 80 68V12C80 5.37258 74.6274 0 68 0Z" fill="#CC91FF"/>
<path fill-rule="evenodd" clip-rule="evenodd" d="M20.8002 24H14.4004V30.3992V36.799H20.8002V30.3998V24ZM14.4004 36.799H20.8002V43.1992H14.4004V36.799ZM20.8002 43.1992H14.4004V49.6H20.8002V43.1992ZM20.8002 49.6L27.1998 49.6002V56.0002H20.8L20.8002 49.6ZM33.6004 49.6002H27.1998V56.0002H33.6004V49.6002ZM33.5996 43.2002H39.9996V49.6L33.6004 49.6002L33.5996 43.2002ZM39.9996 36.7992H33.5996V43.2002H39.9996V36.7992ZM33.5996 36.7992V30.3998V24H39.9996V30.3992V36.7992H33.5996Z" fill="white"/>
<path fill-rule="evenodd" clip-rule="evenodd" d="M46.3994 24H52.7994V30.4H46.3994V24ZM52.7994 49.6006H59.1992V43.2006H52.7992L52.7994 49.6006L46.3994 49.5998V55.9998H52.7994V49.6006ZM59.1994 36.7994H65.5994V43.1994L59.1992 43.2006L59.1994 36.7994ZM59.1992 30.4002L52.7994 30.4L52.7992 36.8002L59.1994 36.7994L59.1992 30.4002Z" fill="white"/>
</g>
<defs>
<clipPath id="clip0_405_85542">
<rect width="80" height="80" fill="white"/>
</clipPath>
</defs>
</svg>
